<?xml version="1.0" encoding="utf-8" standalone="no"?>
<!DOCTYPE svg PUBLIC "-//W3C//DTD SVG 1.1//EN"
  "http://www.w3.org/Graphics/SVG/1.1/DTD/svg11.dtd">
<svg xmlns:xlink="http://www.w3.org/1999/xlink" width="394.423125pt" height="325.986375pt" viewBox="0 0 394.423125 325.986375" xmlns="http://www.w3.org/2000/svg" version="1.1">
 <metadata>
  <rdf:RDF xmlns:dc="http://purl.org/dc/elements/1.1/" xmlns:cc="http://creativecommons.org/ns#" xmlns:rdf="http://www.w3.org/1999/02/22-rdf-syntax-ns#">
   <cc:Work>
    <dc:type rdf:resource="http://purl.org/dc/dcmitype/StillImage"/>
    <dc:date>2024-02-19T01:35:50.340267</dc:date>
    <dc:format>image/svg+xml</dc:format>
    <dc:creator>
     <cc:Agent>
      <dc:title>Matplotlib v3.8.2, https://matplotlib.org/</dc:title>
     </cc:Agent>
    </dc:creator>
   </cc:Work>
  </rdf:RDF>
 </metadata>
 <defs>
  <style type="text/css">*{stroke-linejoin: round; stroke-linecap: butt}</style>
 </defs>
 <g id="figure_1">
  <g id="patch_1">
   <path d="M 0 325.986375 
L 394.423125 325.986375 
L 394.423125 0 
L 0 0 
z
" style="fill: #ffffff"/>
  </g>
  <g id="axes_1">
   <g id="patch_2">
    <path d="M 30.103125 288.430125 
L 387.223125 288.430125 
L 387.223125 22.318125 
L 30.103125 22.318125 
z
" style="fill: #ffffff"/>
   </g>
   <g id="matplotlib.axis_1">
    <g id="xtick_1">
     <g id="line2d_1">
      <path d="M 46.335852 288.430125 
L 46.335852 22.318125 
" clip-path="url(#p7966c48f6b)" style="fill: none; stroke: #cccccc; stroke-width: 0.8; stroke-linecap: round"/>
     </g>
     <g id="text_1">
      <!-- 0 -->
      <g style="fill: #262626" transform="translate(43.154602 303.028562) scale(0.1 -0.1)">
       <defs>
        <path id="DejaVuSans-30" d="M 2034 4250 
Q 1547 4250 1301 3770 
Q 1056 3291 1056 2328 
Q 1056 1369 1301 889 
Q 1547 409 2034 409 
Q 2525 409 2770 889 
Q 3016 1369 3016 2328 
Q 3016 3291 2770 3770 
Q 2525 4250 2034 4250 
z
M 2034 4750 
Q 2819 4750 3233 4129 
Q 3647 3509 3647 2328 
Q 3647 1150 3233 529 
Q 2819 -91 2034 -91 
Q 1250 -91 836 529 
Q 422 1150 422 2328 
Q 422 3509 836 4129 
Q 1250 4750 2034 4750 
z
" transform="scale(0.015625)"/>
       </defs>
       <use xlink:href="#DejaVuSans-30"/>
      </g>
     </g>
    </g>
    <g id="xtick_2">
     <g id="line2d_2">
      <path d="M 116.912927 288.430125 
L 116.912927 22.318125 
" clip-path="url(#p7966c48f6b)" style="fill: none; stroke: #cccccc; stroke-width: 0.8; stroke-linecap: round"/>
     </g>
     <g id="text_2">
      <!-- 20 -->
      <g style="fill: #262626" transform="translate(110.550427 303.028562) scale(0.1 -0.1)">
       <defs>
        <path id="DejaVuSans-32" d="M 1228 531 
L 3431 531 
L 3431 0 
L 469 0 
L 469 531 
Q 828 903 1448 1529 
Q 2069 2156 2228 2338 
Q 2531 2678 2651 2914 
Q 2772 3150 2772 3378 
Q 2772 3750 2511 3984 
Q 2250 4219 1831 4219 
Q 1534 4219 1204 4116 
Q 875 4013 500 3803 
L 500 4441 
Q 881 4594 1212 4672 
Q 1544 4750 1819 4750 
Q 2544 4750 2975 4387 
Q 3406 4025 3406 3419 
Q 3406 3131 3298 2873 
Q 3191 2616 2906 2266 
Q 2828 2175 2409 1742 
Q 1991 1309 1228 531 
z
" transform="scale(0.015625)"/>
       </defs>
       <use xlink:href="#DejaVuSans-32"/>
       <use xlink:href="#DejaVuSans-30" x="63.623047"/>
      </g>
     </g>
    </g>
    <g id="xtick_3">
     <g id="line2d_3">
      <path d="M 187.490002 288.430125 
L 187.490002 22.318125 
" clip-path="url(#p7966c48f6b)" style="fill: none; stroke: #cccccc; stroke-width: 0.8; stroke-linecap: round"/>
     </g>
     <g id="text_3">
      <!-- 40 -->
      <g style="fill: #262626" transform="translate(181.127502 303.028562) scale(0.1 -0.1)">
       <defs>
        <path id="DejaVuSans-34" d="M 2419 4116 
L 825 1625 
L 2419 1625 
L 2419 4116 
z
M 2253 4666 
L 3047 4666 
L 3047 1625 
L 3713 1625 
L 3713 1100 
L 3047 1100 
L 3047 0 
L 2419 0 
L 2419 1100 
L 313 1100 
L 313 1709 
L 2253 4666 
z
" transform="scale(0.015625)"/>
       </defs>
       <use xlink:href="#DejaVuSans-34"/>
       <use xlink:href="#DejaVuSans-30" x="63.623047"/>
      </g>
     </g>
    </g>
    <g id="xtick_4">
     <g id="line2d_4">
      <path d="M 258.067078 288.430125 
L 258.067078 22.318125 
" clip-path="url(#p7966c48f6b)" style="fill: none; stroke: #cccccc; stroke-width: 0.8; stroke-linecap: round"/>
     </g>
     <g id="text_4">
      <!-- 60 -->
      <g style="fill: #262626" transform="translate(251.704578 303.028562) scale(0.1 -0.1)">
       <defs>
        <path id="DejaVuSans-36" d="M 2113 2584 
Q 1688 2584 1439 2293 
Q 1191 2003 1191 1497 
Q 1191 994 1439 701 
Q 1688 409 2113 409 
Q 2538 409 2786 701 
Q 3034 994 3034 1497 
Q 3034 2003 2786 2293 
Q 2538 2584 2113 2584 
z
M 3366 4563 
L 3366 3988 
Q 3128 4100 2886 4159 
Q 2644 4219 2406 4219 
Q 1781 4219 1451 3797 
Q 1122 3375 1075 2522 
Q 1259 2794 1537 2939 
Q 1816 3084 2150 3084 
Q 2853 3084 3261 2657 
Q 3669 2231 3669 1497 
Q 3669 778 3244 343 
Q 2819 -91 2113 -91 
Q 1303 -91 875 529 
Q 447 1150 447 2328 
Q 447 3434 972 4092 
Q 1497 4750 2381 4750 
Q 2619 4750 2861 4703 
Q 3103 4656 3366 4563 
z
" transform="scale(0.015625)"/>
       </defs>
       <use xlink:href="#DejaVuSans-36"/>
       <use xlink:href="#DejaVuSans-30" x="63.623047"/>
      </g>
     </g>
    </g>
    <g id="xtick_5">
     <g id="line2d_5">
      <path d="M 328.644153 288.430125 
L 328.644153 22.318125 
" clip-path="url(#p7966c48f6b)" style="fill: none; stroke: #cccccc; stroke-width: 0.8; stroke-linecap: round"/>
     </g>
     <g id="text_5">
      <!-- 80 -->
      <g style="fill: #262626" transform="translate(322.281653 303.028562) scale(0.1 -0.1)">
       <defs>
        <path id="DejaVuSans-38" d="M 2034 2216 
Q 1584 2216 1326 1975 
Q 1069 1734 1069 1313 
Q 1069 891 1326 650 
Q 1584 409 2034 409 
Q 2484 409 2743 651 
Q 3003 894 3003 1313 
Q 3003 1734 2745 1975 
Q 2488 2216 2034 2216 
z
M 1403 2484 
Q 997 2584 770 2862 
Q 544 3141 544 3541 
Q 544 4100 942 4425 
Q 1341 4750 2034 4750 
Q 2731 4750 3128 4425 
Q 3525 4100 3525 3541 
Q 3525 3141 3298 2862 
Q 3072 2584 2669 2484 
Q 3125 2378 3379 2068 
Q 3634 1759 3634 1313 
Q 3634 634 3220 271 
Q 2806 -91 2034 -91 
Q 1263 -91 848 271 
Q 434 634 434 1313 
Q 434 1759 690 2068 
Q 947 2378 1403 2484 
z
M 1172 3481 
Q 1172 3119 1398 2916 
Q 1625 2713 2034 2713 
Q 2441 2713 2670 2916 
Q 2900 3119 2900 3481 
Q 2900 3844 2670 4047 
Q 2441 4250 2034 4250 
Q 1625 4250 1398 4047 
Q 1172 3844 1172 3481 
z
" transform="scale(0.015625)"/>
       </defs>
       <use xlink:href="#DejaVuSans-38"/>
       <use xlink:href="#DejaVuSans-30" x="63.623047"/>
      </g>
     </g>
    </g>
    <g id="text_6">
     <!-- epochs -->
     <g style="fill: #262626" transform="translate(190.830313 316.706687) scale(0.1 -0.1)">
      <defs>
       <path id="DejaVuSans-65" d="M 3597 1894 
L 3597 1613 
L 953 1613 
Q 991 1019 1311 708 
Q 1631 397 2203 397 
Q 2534 397 2845 478 
Q 3156 559 3463 722 
L 3463 178 
Q 3153 47 2828 -22 
Q 2503 -91 2169 -91 
Q 1331 -91 842 396 
Q 353 884 353 1716 
Q 353 2575 817 3079 
Q 1281 3584 2069 3584 
Q 2775 3584 3186 3129 
Q 3597 2675 3597 1894 
z
M 3022 2063 
Q 3016 2534 2758 2815 
Q 2500 3097 2075 3097 
Q 1594 3097 1305 2825 
Q 1016 2553 972 2059 
L 3022 2063 
z
" transform="scale(0.015625)"/>
       <path id="DejaVuSans-70" d="M 1159 525 
L 1159 -1331 
L 581 -1331 
L 581 3500 
L 1159 3500 
L 1159 2969 
Q 1341 3281 1617 3432 
Q 1894 3584 2278 3584 
Q 2916 3584 3314 3078 
Q 3713 2572 3713 1747 
Q 3713 922 3314 415 
Q 2916 -91 2278 -91 
Q 1894 -91 1617 61 
Q 1341 213 1159 525 
z
M 3116 1747 
Q 3116 2381 2855 2742 
Q 2594 3103 2138 3103 
Q 1681 3103 1420 2742 
Q 1159 2381 1159 1747 
Q 1159 1113 1420 752 
Q 1681 391 2138 391 
Q 2594 391 2855 752 
Q 3116 1113 3116 1747 
z
" transform="scale(0.015625)"/>
       <path id="DejaVuSans-6f" d="M 1959 3097 
Q 1497 3097 1228 2736 
Q 959 2375 959 1747 
Q 959 1119 1226 758 
Q 1494 397 1959 397 
Q 2419 397 2687 759 
Q 2956 1122 2956 1747 
Q 2956 2369 2687 2733 
Q 2419 3097 1959 3097 
z
M 1959 3584 
Q 2709 3584 3137 3096 
Q 3566 2609 3566 1747 
Q 3566 888 3137 398 
Q 2709 -91 1959 -91 
Q 1206 -91 779 398 
Q 353 888 353 1747 
Q 353 2609 779 3096 
Q 1206 3584 1959 3584 
z
" transform="scale(0.015625)"/>
       <path id="DejaVuSans-63" d="M 3122 3366 
L 3122 2828 
Q 2878 2963 2633 3030 
Q 2388 3097 2138 3097 
Q 1578 3097 1268 2742 
Q 959 2388 959 1747 
Q 959 1106 1268 751 
Q 1578 397 2138 397 
Q 2388 397 2633 464 
Q 2878 531 3122 666 
L 3122 134 
Q 2881 22 2623 -34 
Q 2366 -91 2075 -91 
Q 1284 -91 818 406 
Q 353 903 353 1747 
Q 353 2603 823 3093 
Q 1294 3584 2113 3584 
Q 2378 3584 2631 3529 
Q 2884 3475 3122 3366 
z
" transform="scale(0.015625)"/>
       <path id="DejaVuSans-68" d="M 3513 2113 
L 3513 0 
L 2938 0 
L 2938 2094 
Q 2938 2591 2744 2837 
Q 2550 3084 2163 3084 
Q 1697 3084 1428 2787 
Q 1159 2491 1159 1978 
L 1159 0 
L 581 0 
L 581 4863 
L 1159 4863 
L 1159 2956 
Q 1366 3272 1645 3428 
Q 1925 3584 2291 3584 
Q 2894 3584 3203 3211 
Q 3513 2838 3513 2113 
z
" transform="scale(0.015625)"/>
       <path id="DejaVuSans-73" d="M 2834 3397 
L 2834 2853 
Q 2591 2978 2328 3040 
Q 2066 3103 1784 3103 
Q 1356 3103 1142 2972 
Q 928 2841 928 2578 
Q 928 2378 1081 2264 
Q 1234 2150 1697 2047 
L 1894 2003 
Q 2506 1872 2764 1633 
Q 3022 1394 3022 966 
Q 3022 478 2636 193 
Q 2250 -91 1575 -91 
Q 1294 -91 989 -36 
Q 684 19 347 128 
L 347 722 
Q 666 556 975 473 
Q 1284 391 1588 391 
Q 1994 391 2212 530 
Q 2431 669 2431 922 
Q 2431 1156 2273 1281 
Q 2116 1406 1581 1522 
L 1381 1569 
Q 847 1681 609 1914 
Q 372 2147 372 2553 
Q 372 3047 722 3315 
Q 1072 3584 1716 3584 
Q 2034 3584 2315 3537 
Q 2597 3491 2834 3397 
z
" transform="scale(0.015625)"/>
      </defs>
      <use xlink:href="#DejaVuSans-65"/>
      <use xlink:href="#DejaVuSans-70" x="61.523438"/>
      <use xlink:href="#DejaVuSans-6f" x="125"/>
      <use xlink:href="#DejaVuSans-63" x="186.181641"/>
      <use xlink:href="#DejaVuSans-68" x="241.162109"/>
      <use xlink:href="#DejaVuSans-73" x="304.541016"/>
     </g>
    </g>
   </g>
   <g id="matplotlib.axis_2">
    <g id="ytick_1">
     <g id="line2d_6">
      <path d="M 30.103125 286.998812 
L 387.223125 286.998812 
" clip-path="url(#p7966c48f6b)" style="fill: none; stroke: #cccccc; stroke-width: 0.8; stroke-linecap: round"/>
     </g>
     <g id="text_7">
      <!-- 0.0 -->
      <g style="fill: #262626" transform="translate(7.2 290.798031) scale(0.1 -0.1)">
       <defs>
        <path id="DejaVuSans-2e" d="M 684 794 
L 1344 794 
L 1344 0 
L 684 0 
L 684 794 
z
" transform="scale(0.015625)"/>
       </defs>
       <use xlink:href="#DejaVuSans-30"/>
       <use xlink:href="#DejaVuSans-2e" x="63.623047"/>
       <use xlink:href="#DejaVuSans-30" x="95.410156"/>
      </g>
     </g>
    </g>
    <g id="ytick_2">
     <g id="line2d_7">
      <path d="M 30.103125 236.481874 
L 387.223125 236.481874 
" clip-path="url(#p7966c48f6b)" style="fill: none; stroke: #cccccc; stroke-width: 0.8; stroke-linecap: round"/>
     </g>
     <g id="text_8">
      <!-- 0.2 -->
      <g style="fill: #262626" transform="translate(7.2 240.281093) scale(0.1 -0.1)">
       <use xlink:href="#DejaVuSans-30"/>
       <use xlink:href="#DejaVuSans-2e" x="63.623047"/>
       <use xlink:href="#DejaVuSans-32" x="95.410156"/>
      </g>
     </g>
    </g>
    <g id="ytick_3">
     <g id="line2d_8">
      <path d="M 30.103125 185.964937 
L 387.223125 185.964937 
" clip-path="url(#p7966c48f6b)" style="fill: none; stroke: #cccccc; stroke-width: 0.8; stroke-linecap: round"/>
     </g>
     <g id="text_9">
      <!-- 0.4 -->
      <g style="fill: #262626" transform="translate(7.2 189.764156) scale(0.1 -0.1)">
       <use xlink:href="#DejaVuSans-30"/>
       <use xlink:href="#DejaVuSans-2e" x="63.623047"/>
       <use xlink:href="#DejaVuSans-34" x="95.410156"/>
      </g>
     </g>
    </g>
    <g id="ytick_4">
     <g id="line2d_9">
      <path d="M 30.103125 135.448 
L 387.223125 135.448 
" clip-path="url(#p7966c48f6b)" style="fill: none; stroke: #cccccc; stroke-width: 0.8; stroke-linecap: round"/>
     </g>
     <g id="text_10">
      <!-- 0.6 -->
      <g style="fill: #262626" transform="translate(7.2 139.247218) scale(0.1 -0.1)">
       <use xlink:href="#DejaVuSans-30"/>
       <use xlink:href="#DejaVuSans-2e" x="63.623047"/>
       <use xlink:href="#DejaVuSans-36" x="95.410156"/>
      </g>
     </g>
    </g>
    <g id="ytick_5">
     <g id="line2d_10">
      <path d="M 30.103125 84.931062 
L 387.223125 84.931062 
" clip-path="url(#p7966c48f6b)" style="fill: none; stroke: #cccccc; stroke-width: 0.8; stroke-linecap: round"/>
     </g>
     <g id="text_11">
      <!-- 0.8 -->
      <g style="fill: #262626" transform="translate(7.2 88.730281) scale(0.1 -0.1)">
       <use xlink:href="#DejaVuSans-30"/>
       <use xlink:href="#DejaVuSans-2e" x="63.623047"/>
       <use xlink:href="#DejaVuSans-38" x="95.410156"/>
      </g>
     </g>
    </g>
    <g id="ytick_6">
     <g id="line2d_11">
      <path d="M 30.103125 34.414125 
L 387.223125 34.414125 
" clip-path="url(#p7966c48f6b)" style="fill: none; stroke: #cccccc; stroke-width: 0.8; stroke-linecap: round"/>
     </g>
     <g id="text_12">
      <!-- 1.0 -->
      <g style="fill: #262626" transform="translate(7.2 38.213344) scale(0.1 -0.1)">
       <defs>
        <path id="DejaVuSans-31" d="M 794 531 
L 1825 531 
L 1825 4091 
L 703 3866 
L 703 4441 
L 1819 4666 
L 2450 4666 
L 2450 531 
L 3481 531 
L 3481 0 
L 794 0 
L 794 531 
z
" transform="scale(0.015625)"/>
       </defs>
       <use xlink:href="#DejaVuSans-31"/>
       <use xlink:href="#DejaVuSans-2e" x="63.623047"/>
       <use xlink:href="#DejaVuSans-30" x="95.410156"/>
      </g>
     </g>
    </g>
   </g>
   <g id="line2d_12">
    <path d="M 46.335852 276.334125 
L 49.864706 265.669438 
L 53.39356 236.481874 
L 56.922414 128.712408 
L 60.451267 61.356492 
L 63.980121 68.653383 
L 67.508975 49.569206 
L 71.037829 54.6209 
L 74.566682 54.6209 
L 78.095536 50.691805 
L 81.62439 48.446608 
L 85.153244 50.130506 
L 88.682097 47.324009 
L 92.210951 43.394914 
L 95.739805 43.394914 
L 99.268659 49.007907 
L 102.797512 49.007907 
L 106.326366 54.059601 
L 109.85522 43.394914 
L 113.384074 45.078812 
L 116.912927 42.272315 
L 120.441781 41.149717 
L 123.970635 39.465819 
L 127.499489 39.465819 
L 131.028342 38.904519 
L 134.557196 38.904519 
" clip-path="url(#p7966c48f6b)" style="fill: none; stroke: #1f77b4; stroke-width: 1.5; stroke-linecap: round"/>
   </g>
   <g id="line2d_13">
    <path d="M 46.335852 272.935076 
L 49.864706 260.183956 
L 53.39356 228.493673 
L 56.922414 123.109416 
L 60.451267 56.353552 
L 63.980121 62.541596 
L 67.508975 48.102827 
L 71.037829 48.665377 
L 74.566682 48.852893 
L 78.095536 39.47707 
L 81.62439 42.477333 
L 85.153244 41.164718 
L 88.682097 37.789421 
L 92.210951 35.914257 
L 95.739805 37.789421 
L 99.268659 41.914784 
L 102.797512 40.977201 
L 106.326366 45.85263 
L 109.85522 36.101773 
L 113.384074 34.601641 
L 116.912927 35.164191 
L 120.441781 34.414125 
L 123.970635 34.414125 
L 127.499489 34.414125 
L 131.028342 34.414125 
L 134.557196 34.414125 
" clip-path="url(#p7966c48f6b)" style="fill: none; stroke: #ff7f0e; stroke-width: 1.5; stroke-linecap: round"/>
   </g>
   <g id="line2d_14">
    <path d="M 46.335852 260.056445 
L 49.864706 215.152501 
L 53.39356 116.925123 
L 56.922414 92.227953 
L 60.451267 64.162988 
L 63.980121 47.885308 
L 67.508975 46.20141 
L 71.037829 46.20141 
L 74.566682 45.640111 
L 78.095536 43.394914 
L 81.62439 41.711016 
L 85.153244 40.027118 
L 88.682097 43.394914 
L 92.210951 47.324009 
L 95.739805 44.517512 
L 99.268659 49.569206 
L 102.797512 53.498301 
L 106.326366 42.272315 
L 109.85522 42.272315 
L 113.384074 42.833615 
L 116.912927 57.988696 
L 120.441781 40.588417 
L 123.970635 41.711016 
L 127.499489 42.272315 
L 131.028342 40.588417 
L 134.557196 41.711016 
" clip-path="url(#p7966c48f6b)" style="fill: none; stroke: #2ca02c; stroke-width: 1.5; stroke-linecap: round"/>
   </g>
   <g id="line2d_15">
    <path d="M 46.335852 261.871605 
L 49.864706 202.803916 
L 53.39356 112.79601 
L 56.922414 86.356188 
L 60.451267 58.60375 
L 63.980121 42.477333 
L 67.508975 41.164718 
L 71.037829 39.852103 
L 74.566682 40.602169 
L 78.095536 37.414389 
L 81.62439 36.101773 
L 85.153244 36.664323 
L 88.682097 37.601905 
L 92.210951 40.977201 
L 95.739805 37.039356 
L 99.268659 42.1023 
L 102.797512 48.102827 
L 106.326366 36.664323 
L 109.85522 35.164191 
L 113.384074 35.164191 
L 116.912927 55.791003 
L 120.441781 35.914257 
L 123.970635 34.789158 
L 127.499489 34.414125 
L 131.028342 34.601641 
L 134.557196 34.414125 
" clip-path="url(#p7966c48f6b)" style="fill: none; stroke: #d62728; stroke-width: 1.5; stroke-linecap: round"/>
   </g>
   <g id="line2d_16">
    <path d="M 46.335852 250.514357 
L 49.864706 264.54684 
L 53.39356 264.54684 
L 56.922414 247.146561 
L 60.451267 232.552779 
L 63.980121 222.449392 
L 67.508975 230.307582 
L 71.037829 202.242617 
L 74.566682 187.648835 
L 78.095536 171.371155 
L 81.62439 175.30025 
L 85.153244 164.074264 
L 88.682097 145.551387 
L 92.210951 143.867489 
L 95.739805 123.099415 
L 99.268659 114.118626 
L 102.797512 102.331341 
L 106.326366 101.770041 
L 109.85522 97.279647 
L 113.384074 91.105355 
L 116.912927 86.61496 
L 120.441781 78.75677 
L 123.970635 74.266376 
L 127.499489 73.143777 
L 131.028342 69.214682 
L 134.557196 68.653383 
L 138.08605 67.530784 
L 141.614904 64.162988 
L 145.143757 65.285587 
L 148.672611 63.601689 
L 152.201465 61.917791 
L 155.730319 60.233893 
L 159.259172 60.233893 
L 162.788026 56.866097 
L 166.31688 57.427396 
L 169.845734 56.866097 
L 173.374587 55.182199 
L 176.903441 55.743499 
L 180.432295 55.743499 
L 183.961149 52.937002 
L 187.490002 51.814403 
L 191.018856 53.498301 
L 194.54771 50.691805 
L 198.076564 47.885308 
L 201.605417 46.76271 
L 205.134271 47.324009 
L 208.663125 45.078812 
L 212.191979 44.517512 
L 215.720833 44.517512 
L 219.249686 45.640111 
L 222.77854 46.20141 
L 226.307394 46.20141 
L 229.836248 46.20141 
L 233.365101 45.640111 
L 236.893955 46.20141 
L 240.422809 45.640111 
L 243.951663 47.324009 
L 247.480516 46.20141 
L 251.00937 46.20141 
L 254.538224 46.76271 
L 258.067078 47.324009 
L 261.595931 47.885308 
L 265.124785 48.446608 
L 268.653639 47.324009 
L 272.182493 46.20141 
L 275.711346 46.20141 
L 279.2402 45.078812 
L 282.769054 45.640111 
L 286.297908 45.640111 
L 289.826761 45.078812 
L 293.355615 45.640111 
L 296.884469 45.078812 
L 300.413323 44.517512 
L 303.942176 43.956213 
L 307.47103 43.956213 
L 310.999884 43.956213 
L 314.528738 44.517512 
L 318.057591 44.517512 
L 321.586445 44.517512 
L 325.115299 45.078812 
L 328.644153 44.517512 
L 332.173006 44.517512 
L 335.70186 45.640111 
L 339.230714 45.078812 
L 342.759568 45.640111 
L 346.288421 45.640111 
L 349.817275 46.20141 
L 353.346129 46.20141 
L 356.874983 46.20141 
L 360.403836 46.20141 
L 363.93269 46.20141 
L 367.461544 46.20141 
L 370.990398 46.20141 
" clip-path="url(#p7966c48f6b)" style="fill: none; stroke: #9467bd; stroke-width: 1.5; stroke-linecap: round"/>
   </g>
   <g id="line2d_17">
    <path d="M 46.335852 238.057013 
L 49.864706 259.246374 
L 53.39356 259.246374 
L 56.922414 241.994859 
L 60.451267 222.680662 
L 63.980121 213.492355 
L 67.508975 228.11864 
L 71.037829 201.866334 
L 74.566682 179.73939 
L 78.095536 163.237941 
L 81.62439 160.050161 
L 85.153244 149.549238 
L 88.682097 133.047789 
L 92.210951 129.297459 
L 95.739805 113.358559 
L 99.268659 107.545549 
L 102.797512 99.857373 
L 106.326366 96.85711 
L 109.85522 92.731748 
L 113.384074 85.418605 
L 116.912927 78.668012 
L 120.441781 75.480232 
L 123.970635 70.79232 
L 127.499489 70.604804 
L 131.028342 68.917156 
L 134.557196 66.854475 
L 138.08605 63.854211 
L 141.614904 60.291398 
L 145.143757 59.916365 
L 148.672611 57.478651 
L 152.201465 55.791003 
L 155.730319 56.166036 
L 159.259172 54.85342 
L 162.788026 52.978256 
L 166.31688 50.915574 
L 169.845734 50.915574 
L 173.374587 50.165509 
L 176.903441 47.915311 
L 180.432295 47.165245 
L 183.961149 46.602696 
L 187.490002 43.414916 
L 191.018856 44.352498 
L 194.54771 42.66485 
L 198.076564 41.914784 
L 201.605417 41.727267 
L 205.134271 41.727267 
L 208.663125 40.414652 
L 212.191979 40.039619 
L 215.720833 39.102037 
L 219.249686 38.91452 
L 222.77854 37.976938 
L 226.307394 37.226872 
L 229.836248 37.226872 
L 233.365101 36.476806 
L 236.893955 36.664323 
L 240.422809 36.28929 
L 243.951663 35.72674 
L 247.480516 35.351707 
L 251.00937 35.351707 
L 254.538224 35.164191 
L 258.067078 34.976674 
L 261.595931 34.789158 
L 265.124785 34.789158 
L 268.653639 34.601641 
L 272.182493 34.601641 
L 275.711346 34.789158 
L 279.2402 34.789158 
L 282.769054 34.789158 
L 286.297908 34.414125 
L 289.826761 34.414125 
L 293.355615 34.414125 
L 296.884469 34.414125 
L 300.413323 34.414125 
L 303.942176 34.414125 
L 307.47103 34.414125 
L 310.999884 34.414125 
L 314.528738 34.414125 
L 318.057591 34.414125 
L 321.586445 34.414125 
L 325.115299 34.414125 
L 328.644153 34.414125 
L 332.173006 34.414125 
L 335.70186 34.414125 
L 339.230714 34.414125 
L 342.759568 34.414125 
L 346.288421 34.414125 
L 349.817275 34.414125 
L 353.346129 34.414125 
L 356.874983 34.414125 
L 360.403836 34.414125 
L 363.93269 34.414125 
L 367.461544 34.414125 
L 370.990398 34.414125 
" clip-path="url(#p7966c48f6b)" style="fill: none; stroke: #8c564b; stroke-width: 1.5; stroke-linecap: round"/>
   </g>
   <g id="patch_3">
    <path d="M 30.103125 288.430125 
L 30.103125 22.318125 
" style="fill: none; stroke: #cccccc; stroke-width: 0.8; stroke-linejoin: miter; stroke-linecap: square"/>
   </g>
   <g id="patch_4">
    <path d="M 387.223125 288.430125 
L 387.223125 22.318125 
" style="fill: none; stroke: #cccccc; stroke-width: 0.8; stroke-linejoin: miter; stroke-linecap: square"/>
   </g>
   <g id="patch_5">
    <path d="M 30.103125 288.430125 
L 387.223125 288.430125 
" style="fill: none; stroke: #cccccc; stroke-width: 0.8; stroke-linejoin: miter; stroke-linecap: square"/>
   </g>
   <g id="patch_6">
    <path d="M 30.103125 22.318125 
L 387.223125 22.318125 
" style="fill: none; stroke: #cccccc; stroke-width: 0.8; stroke-linejoin: miter; stroke-linecap: square"/>
   </g>
   <g id="text_13">
    <!-- SGD vs SGD + momentum vs LBFGS -->
    <g style="fill: #262626" transform="translate(98.461875 16.318125) scale(0.12 -0.12)">
     <defs>
      <path id="DejaVuSans-53" d="M 3425 4513 
L 3425 3897 
Q 3066 4069 2747 4153 
Q 2428 4238 2131 4238 
Q 1616 4238 1336 4038 
Q 1056 3838 1056 3469 
Q 1056 3159 1242 3001 
Q 1428 2844 1947 2747 
L 2328 2669 
Q 3034 2534 3370 2195 
Q 3706 1856 3706 1288 
Q 3706 609 3251 259 
Q 2797 -91 1919 -91 
Q 1588 -91 1214 -16 
Q 841 59 441 206 
L 441 856 
Q 825 641 1194 531 
Q 1563 422 1919 422 
Q 2459 422 2753 634 
Q 3047 847 3047 1241 
Q 3047 1584 2836 1778 
Q 2625 1972 2144 2069 
L 1759 2144 
Q 1053 2284 737 2584 
Q 422 2884 422 3419 
Q 422 4038 858 4394 
Q 1294 4750 2059 4750 
Q 2388 4750 2728 4690 
Q 3069 4631 3425 4513 
z
" transform="scale(0.015625)"/>
      <path id="DejaVuSans-47" d="M 3809 666 
L 3809 1919 
L 2778 1919 
L 2778 2438 
L 4434 2438 
L 4434 434 
Q 4069 175 3628 42 
Q 3188 -91 2688 -91 
Q 1594 -91 976 548 
Q 359 1188 359 2328 
Q 359 3472 976 4111 
Q 1594 4750 2688 4750 
Q 3144 4750 3555 4637 
Q 3966 4525 4313 4306 
L 4313 3634 
Q 3963 3931 3569 4081 
Q 3175 4231 2741 4231 
Q 1884 4231 1454 3753 
Q 1025 3275 1025 2328 
Q 1025 1384 1454 906 
Q 1884 428 2741 428 
Q 3075 428 3337 486 
Q 3600 544 3809 666 
z
" transform="scale(0.015625)"/>
      <path id="DejaVuSans-44" d="M 1259 4147 
L 1259 519 
L 2022 519 
Q 2988 519 3436 956 
Q 3884 1394 3884 2338 
Q 3884 3275 3436 3711 
Q 2988 4147 2022 4147 
L 1259 4147 
z
M 628 4666 
L 1925 4666 
Q 3281 4666 3915 4102 
Q 4550 3538 4550 2338 
Q 4550 1131 3912 565 
Q 3275 0 1925 0 
L 628 0 
L 628 4666 
z
" transform="scale(0.015625)"/>
      <path id="DejaVuSans-20" transform="scale(0.015625)"/>
      <path id="DejaVuSans-76" d="M 191 3500 
L 800 3500 
L 1894 563 
L 2988 3500 
L 3597 3500 
L 2284 0 
L 1503 0 
L 191 3500 
z
" transform="scale(0.015625)"/>
      <path id="DejaVuSans-2b" d="M 2944 4013 
L 2944 2272 
L 4684 2272 
L 4684 1741 
L 2944 1741 
L 2944 0 
L 2419 0 
L 2419 1741 
L 678 1741 
L 678 2272 
L 2419 2272 
L 2419 4013 
L 2944 4013 
z
" transform="scale(0.015625)"/>
      <path id="DejaVuSans-6d" d="M 3328 2828 
Q 3544 3216 3844 3400 
Q 4144 3584 4550 3584 
Q 5097 3584 5394 3201 
Q 5691 2819 5691 2113 
L 5691 0 
L 5113 0 
L 5113 2094 
Q 5113 2597 4934 2840 
Q 4756 3084 4391 3084 
Q 3944 3084 3684 2787 
Q 3425 2491 3425 1978 
L 3425 0 
L 2847 0 
L 2847 2094 
Q 2847 2600 2669 2842 
Q 2491 3084 2119 3084 
Q 1678 3084 1418 2786 
Q 1159 2488 1159 1978 
L 1159 0 
L 581 0 
L 581 3500 
L 1159 3500 
L 1159 2956 
Q 1356 3278 1631 3431 
Q 1906 3584 2284 3584 
Q 2666 3584 2933 3390 
Q 3200 3197 3328 2828 
z
" transform="scale(0.015625)"/>
      <path id="DejaVuSans-6e" d="M 3513 2113 
L 3513 0 
L 2938 0 
L 2938 2094 
Q 2938 2591 2744 2837 
Q 2550 3084 2163 3084 
Q 1697 3084 1428 2787 
Q 1159 2491 1159 1978 
L 1159 0 
L 581 0 
L 581 3500 
L 1159 3500 
L 1159 2956 
Q 1366 3272 1645 3428 
Q 1925 3584 2291 3584 
Q 2894 3584 3203 3211 
Q 3513 2838 3513 2113 
z
" transform="scale(0.015625)"/>
      <path id="DejaVuSans-74" d="M 1172 4494 
L 1172 3500 
L 2356 3500 
L 2356 3053 
L 1172 3053 
L 1172 1153 
Q 1172 725 1289 603 
Q 1406 481 1766 481 
L 2356 481 
L 2356 0 
L 1766 0 
Q 1100 0 847 248 
Q 594 497 594 1153 
L 594 3053 
L 172 3053 
L 172 3500 
L 594 3500 
L 594 4494 
L 1172 4494 
z
" transform="scale(0.015625)"/>
      <path id="DejaVuSans-75" d="M 544 1381 
L 544 3500 
L 1119 3500 
L 1119 1403 
Q 1119 906 1312 657 
Q 1506 409 1894 409 
Q 2359 409 2629 706 
Q 2900 1003 2900 1516 
L 2900 3500 
L 3475 3500 
L 3475 0 
L 2900 0 
L 2900 538 
Q 2691 219 2414 64 
Q 2138 -91 1772 -91 
Q 1169 -91 856 284 
Q 544 659 544 1381 
z
M 1991 3584 
L 1991 3584 
z
" transform="scale(0.015625)"/>
      <path id="DejaVuSans-4c" d="M 628 4666 
L 1259 4666 
L 1259 531 
L 3531 531 
L 3531 0 
L 628 0 
L 628 4666 
z
" transform="scale(0.015625)"/>
      <path id="DejaVuSans-42" d="M 1259 2228 
L 1259 519 
L 2272 519 
Q 2781 519 3026 730 
Q 3272 941 3272 1375 
Q 3272 1813 3026 2020 
Q 2781 2228 2272 2228 
L 1259 2228 
z
M 1259 4147 
L 1259 2741 
L 2194 2741 
Q 2656 2741 2882 2914 
Q 3109 3088 3109 3444 
Q 3109 3797 2882 3972 
Q 2656 4147 2194 4147 
L 1259 4147 
z
M 628 4666 
L 2241 4666 
Q 2963 4666 3353 4366 
Q 3744 4066 3744 3513 
Q 3744 3084 3544 2831 
Q 3344 2578 2956 2516 
Q 3422 2416 3680 2098 
Q 3938 1781 3938 1306 
Q 3938 681 3513 340 
Q 3088 0 2303 0 
L 628 0 
L 628 4666 
z
" transform="scale(0.015625)"/>
      <path id="DejaVuSans-46" d="M 628 4666 
L 3309 4666 
L 3309 4134 
L 1259 4134 
L 1259 2759 
L 3109 2759 
L 3109 2228 
L 1259 2228 
L 1259 0 
L 628 0 
L 628 4666 
z
" transform="scale(0.015625)"/>
     </defs>
     <use xlink:href="#DejaVuSans-53"/>
     <use xlink:href="#DejaVuSans-47" x="63.476562"/>
     <use xlink:href="#DejaVuSans-44" x="140.966797"/>
     <use xlink:href="#DejaVuSans-20" x="217.96875"/>
     <use xlink:href="#DejaVuSans-76" x="249.755859"/>
     <use xlink:href="#DejaVuSans-73" x="308.935547"/>
     <use xlink:href="#DejaVuSans-20" x="361.035156"/>
     <use xlink:href="#DejaVuSans-53" x="392.822266"/>
     <use xlink:href="#DejaVuSans-47" x="456.298828"/>
     <use xlink:href="#DejaVuSans-44" x="533.789062"/>
     <use xlink:href="#DejaVuSans-20" x="610.791016"/>
     <use xlink:href="#DejaVuSans-2b" x="642.578125"/>
     <use xlink:href="#DejaVuSans-20" x="726.367188"/>
     <use xlink:href="#DejaVuSans-6d" x="758.154297"/>
     <use xlink:href="#DejaVuSans-6f" x="855.566406"/>
     <use xlink:href="#DejaVuSans-6d" x="916.748047"/>
     <use xlink:href="#DejaVuSans-65" x="1014.160156"/>
     <use xlink:href="#DejaVuSans-6e" x="1075.683594"/>
     <use xlink:href="#DejaVuSans-74" x="1139.0625"/>
     <use xlink:href="#DejaVuSans-75" x="1178.271484"/>
     <use xlink:href="#DejaVuSans-6d" x="1241.650391"/>
     <use xlink:href="#DejaVuSans-20" x="1339.0625"/>
     <use xlink:href="#DejaVuSans-76" x="1370.849609"/>
     <use xlink:href="#DejaVuSans-73" x="1430.029297"/>
     <use xlink:href="#DejaVuSans-20" x="1482.128906"/>
     <use xlink:href="#DejaVuSans-4c" x="1513.916016"/>
     <use xlink:href="#DejaVuSans-42" x="1569.628906"/>
     <use xlink:href="#DejaVuSans-46" x="1638.232422"/>
     <use xlink:href="#DejaVuSans-47" x="1695.751953"/>
     <use xlink:href="#DejaVuSans-53" x="1773.242188"/>
    </g>
   </g>
   <g id="legend_1">
    <g id="patch_7">
     <path d="M 187.53875 283.430125 
L 380.223125 283.430125 
Q 382.223125 283.430125 382.223125 281.430125 
L 382.223125 194.361375 
Q 382.223125 192.361375 380.223125 192.361375 
L 187.53875 192.361375 
Q 185.53875 192.361375 185.53875 194.361375 
L 185.53875 281.430125 
Q 185.53875 283.430125 187.53875 283.430125 
z
" style="fill: #ffffff; opacity: 0.8; stroke: #cccccc; stroke-linejoin: miter"/>
    </g>
    <g id="line2d_18">
     <path d="M 189.53875 200.459812 
L 199.53875 200.459812 
L 209.53875 200.459812 
" style="fill: none; stroke: #1f77b4; stroke-width: 1.5; stroke-linecap: round"/>
    </g>
    <g id="text_14">
     <!-- test SGD + momentum [0.982] -->
     <g style="fill: #262626" transform="translate(217.53875 203.959812) scale(0.1 -0.1)">
      <defs>
       <path id="DejaVuSans-5b" d="M 550 4863 
L 1875 4863 
L 1875 4416 
L 1125 4416 
L 1125 -397 
L 1875 -397 
L 1875 -844 
L 550 -844 
L 550 4863 
z
" transform="scale(0.015625)"/>
       <path id="DejaVuSans-39" d="M 703 97 
L 703 672 
Q 941 559 1184 500 
Q 1428 441 1663 441 
Q 2288 441 2617 861 
Q 2947 1281 2994 2138 
Q 2813 1869 2534 1725 
Q 2256 1581 1919 1581 
Q 1219 1581 811 2004 
Q 403 2428 403 3163 
Q 403 3881 828 4315 
Q 1253 4750 1959 4750 
Q 2769 4750 3195 4129 
Q 3622 3509 3622 2328 
Q 3622 1225 3098 567 
Q 2575 -91 1691 -91 
Q 1453 -91 1209 -44 
Q 966 3 703 97 
z
M 1959 2075 
Q 2384 2075 2632 2365 
Q 2881 2656 2881 3163 
Q 2881 3666 2632 3958 
Q 2384 4250 1959 4250 
Q 1534 4250 1286 3958 
Q 1038 3666 1038 3163 
Q 1038 2656 1286 2365 
Q 1534 2075 1959 2075 
z
" transform="scale(0.015625)"/>
       <path id="DejaVuSans-5d" d="M 1947 4863 
L 1947 -844 
L 622 -844 
L 622 -397 
L 1369 -397 
L 1369 4416 
L 622 4416 
L 622 4863 
L 1947 4863 
z
" transform="scale(0.015625)"/>
      </defs>
      <use xlink:href="#DejaVuSans-74"/>
      <use xlink:href="#DejaVuSans-65" x="39.208984"/>
      <use xlink:href="#DejaVuSans-73" x="100.732422"/>
      <use xlink:href="#DejaVuSans-74" x="152.832031"/>
      <use xlink:href="#DejaVuSans-20" x="192.041016"/>
      <use xlink:href="#DejaVuSans-53" x="223.828125"/>
      <use xlink:href="#DejaVuSans-47" x="287.304688"/>
      <use xlink:href="#DejaVuSans-44" x="364.794922"/>
      <use xlink:href="#DejaVuSans-20" x="441.796875"/>
      <use xlink:href="#DejaVuSans-2b" x="473.583984"/>
      <use xlink:href="#DejaVuSans-20" x="557.373047"/>
      <use xlink:href="#DejaVuSans-6d" x="589.160156"/>
      <use xlink:href="#DejaVuSans-6f" x="686.572266"/>
      <use xlink:href="#DejaVuSans-6d" x="747.753906"/>
      <use xlink:href="#DejaVuSans-65" x="845.166016"/>
      <use xlink:href="#DejaVuSans-6e" x="906.689453"/>
      <use xlink:href="#DejaVuSans-74" x="970.068359"/>
      <use xlink:href="#DejaVuSans-75" x="1009.277344"/>
      <use xlink:href="#DejaVuSans-6d" x="1072.65625"/>
      <use xlink:href="#DejaVuSans-20" x="1170.068359"/>
      <use xlink:href="#DejaVuSans-5b" x="1201.855469"/>
      <use xlink:href="#DejaVuSans-30" x="1240.869141"/>
      <use xlink:href="#DejaVuSans-2e" x="1304.492188"/>
      <use xlink:href="#DejaVuSans-39" x="1336.279297"/>
      <use xlink:href="#DejaVuSans-38" x="1399.902344"/>
      <use xlink:href="#DejaVuSans-32" x="1463.525391"/>
      <use xlink:href="#DejaVuSans-5d" x="1527.148438"/>
     </g>
    </g>
    <g id="line2d_19">
     <path d="M 189.53875 215.137937 
L 199.53875 215.137937 
L 209.53875 215.137937 
" style="fill: none; stroke: #ff7f0e; stroke-width: 1.5; stroke-linecap: round"/>
    </g>
    <g id="text_15">
     <!-- train SGD + momentum [1.000] -->
     <g style="fill: #262626" transform="translate(217.53875 218.637937) scale(0.1 -0.1)">
      <defs>
       <path id="DejaVuSans-72" d="M 2631 2963 
Q 2534 3019 2420 3045 
Q 2306 3072 2169 3072 
Q 1681 3072 1420 2755 
Q 1159 2438 1159 1844 
L 1159 0 
L 581 0 
L 581 3500 
L 1159 3500 
L 1159 2956 
Q 1341 3275 1631 3429 
Q 1922 3584 2338 3584 
Q 2397 3584 2469 3576 
Q 2541 3569 2628 3553 
L 2631 2963 
z
" transform="scale(0.015625)"/>
       <path id="DejaVuSans-61" d="M 2194 1759 
Q 1497 1759 1228 1600 
Q 959 1441 959 1056 
Q 959 750 1161 570 
Q 1363 391 1709 391 
Q 2188 391 2477 730 
Q 2766 1069 2766 1631 
L 2766 1759 
L 2194 1759 
z
M 3341 1997 
L 3341 0 
L 2766 0 
L 2766 531 
Q 2569 213 2275 61 
Q 1981 -91 1556 -91 
Q 1019 -91 701 211 
Q 384 513 384 1019 
Q 384 1609 779 1909 
Q 1175 2209 1959 2209 
L 2766 2209 
L 2766 2266 
Q 2766 2663 2505 2880 
Q 2244 3097 1772 3097 
Q 1472 3097 1187 3025 
Q 903 2953 641 2809 
L 641 3341 
Q 956 3463 1253 3523 
Q 1550 3584 1831 3584 
Q 2591 3584 2966 3190 
Q 3341 2797 3341 1997 
z
" transform="scale(0.015625)"/>
       <path id="DejaVuSans-69" d="M 603 3500 
L 1178 3500 
L 1178 0 
L 603 0 
L 603 3500 
z
M 603 4863 
L 1178 4863 
L 1178 4134 
L 603 4134 
L 603 4863 
z
" transform="scale(0.015625)"/>
      </defs>
      <use xlink:href="#DejaVuSans-74"/>
      <use xlink:href="#DejaVuSans-72" x="39.208984"/>
      <use xlink:href="#DejaVuSans-61" x="80.322266"/>
      <use xlink:href="#DejaVuSans-69" x="141.601562"/>
      <use xlink:href="#DejaVuSans-6e" x="169.384766"/>
      <use xlink:href="#DejaVuSans-20" x="232.763672"/>
      <use xlink:href="#DejaVuSans-53" x="264.550781"/>
      <use xlink:href="#DejaVuSans-47" x="328.027344"/>
      <use xlink:href="#DejaVuSans-44" x="405.517578"/>
      <use xlink:href="#DejaVuSans-20" x="482.519531"/>
      <use xlink:href="#DejaVuSans-2b" x="514.306641"/>
      <use xlink:href="#DejaVuSans-20" x="598.095703"/>
      <use xlink:href="#DejaVuSans-6d" x="629.882812"/>
      <use xlink:href="#DejaVuSans-6f" x="727.294922"/>
      <use xlink:href="#DejaVuSans-6d" x="788.476562"/>
      <use xlink:href="#DejaVuSans-65" x="885.888672"/>
      <use xlink:href="#DejaVuSans-6e" x="947.412109"/>
      <use xlink:href="#DejaVuSans-74" x="1010.791016"/>
      <use xlink:href="#DejaVuSans-75" x="1050"/>
      <use xlink:href="#DejaVuSans-6d" x="1113.378906"/>
      <use xlink:href="#DejaVuSans-20" x="1210.791016"/>
      <use xlink:href="#DejaVuSans-5b" x="1242.578125"/>
      <use xlink:href="#DejaVuSans-31" x="1281.591797"/>
      <use xlink:href="#DejaVuSans-2e" x="1345.214844"/>
      <use xlink:href="#DejaVuSans-30" x="1377.001953"/>
      <use xlink:href="#DejaVuSans-30" x="1440.625"/>
      <use xlink:href="#DejaVuSans-30" x="1504.248047"/>
      <use xlink:href="#DejaVuSans-5d" x="1567.871094"/>
     </g>
    </g>
    <g id="line2d_20">
     <path d="M 189.53875 229.816062 
L 199.53875 229.816062 
L 209.53875 229.816062 
" style="fill: none; stroke: #2ca02c; stroke-width: 1.5; stroke-linecap: round"/>
    </g>
    <g id="text_16">
     <!-- test SGD [0.976] -->
     <g style="fill: #262626" transform="translate(217.53875 233.316062) scale(0.1 -0.1)">
      <defs>
       <path id="DejaVuSans-37" d="M 525 4666 
L 3525 4666 
L 3525 4397 
L 1831 0 
L 1172 0 
L 2766 4134 
L 525 4134 
L 525 4666 
z
" transform="scale(0.015625)"/>
      </defs>
      <use xlink:href="#DejaVuSans-74"/>
      <use xlink:href="#DejaVuSans-65" x="39.208984"/>
      <use xlink:href="#DejaVuSans-73" x="100.732422"/>
      <use xlink:href="#DejaVuSans-74" x="152.832031"/>
      <use xlink:href="#DejaVuSans-20" x="192.041016"/>
      <use xlink:href="#DejaVuSans-53" x="223.828125"/>
      <use xlink:href="#DejaVuSans-47" x="287.304688"/>
      <use xlink:href="#DejaVuSans-44" x="364.794922"/>
      <use xlink:href="#DejaVuSans-20" x="441.796875"/>
      <use xlink:href="#DejaVuSans-5b" x="473.583984"/>
      <use xlink:href="#DejaVuSans-30" x="512.597656"/>
      <use xlink:href="#DejaVuSans-2e" x="576.220703"/>
      <use xlink:href="#DejaVuSans-39" x="608.007812"/>
      <use xlink:href="#DejaVuSans-37" x="671.630859"/>
      <use xlink:href="#DejaVuSans-36" x="735.253906"/>
      <use xlink:href="#DejaVuSans-5d" x="798.876953"/>
     </g>
    </g>
    <g id="line2d_21">
     <path d="M 189.53875 244.494187 
L 199.53875 244.494187 
L 209.53875 244.494187 
" style="fill: none; stroke: #d62728; stroke-width: 1.5; stroke-linecap: round"/>
    </g>
    <g id="text_17">
     <!-- train SGD [1.000] -->
     <g style="fill: #262626" transform="translate(217.53875 247.994187) scale(0.1 -0.1)">
      <use xlink:href="#DejaVuSans-74"/>
      <use xlink:href="#DejaVuSans-72" x="39.208984"/>
      <use xlink:href="#DejaVuSans-61" x="80.322266"/>
      <use xlink:href="#DejaVuSans-69" x="141.601562"/>
      <use xlink:href="#DejaVuSans-6e" x="169.384766"/>
      <use xlink:href="#DejaVuSans-20" x="232.763672"/>
      <use xlink:href="#DejaVuSans-53" x="264.550781"/>
      <use xlink:href="#DejaVuSans-47" x="328.027344"/>
      <use xlink:href="#DejaVuSans-44" x="405.517578"/>
      <use xlink:href="#DejaVuSans-20" x="482.519531"/>
      <use xlink:href="#DejaVuSans-5b" x="514.306641"/>
      <use xlink:href="#DejaVuSans-31" x="553.320312"/>
      <use xlink:href="#DejaVuSans-2e" x="616.943359"/>
      <use xlink:href="#DejaVuSans-30" x="648.730469"/>
      <use xlink:href="#DejaVuSans-30" x="712.353516"/>
      <use xlink:href="#DejaVuSans-30" x="775.976562"/>
      <use xlink:href="#DejaVuSans-5d" x="839.599609"/>
     </g>
    </g>
    <g id="line2d_22">
     <path d="M 189.53875 259.172312 
L 199.53875 259.172312 
L 209.53875 259.172312 
" style="fill: none; stroke: #9467bd; stroke-width: 1.5; stroke-linecap: round"/>
    </g>
    <g id="text_18">
     <!-- test LBFGS [0.953] -->
     <g style="fill: #262626" transform="translate(217.53875 262.672312) scale(0.1 -0.1)">
      <defs>
       <path id="DejaVuSans-35" d="M 691 4666 
L 3169 4666 
L 3169 4134 
L 1269 4134 
L 1269 2991 
Q 1406 3038 1543 3061 
Q 1681 3084 1819 3084 
Q 2600 3084 3056 2656 
Q 3513 2228 3513 1497 
Q 3513 744 3044 326 
Q 2575 -91 1722 -91 
Q 1428 -91 1123 -41 
Q 819 9 494 109 
L 494 744 
Q 775 591 1075 516 
Q 1375 441 1709 441 
Q 2250 441 2565 725 
Q 2881 1009 2881 1497 
Q 2881 1984 2565 2268 
Q 2250 2553 1709 2553 
Q 1456 2553 1204 2497 
Q 953 2441 691 2322 
L 691 4666 
z
" transform="scale(0.015625)"/>
       <path id="DejaVuSans-33" d="M 2597 2516 
Q 3050 2419 3304 2112 
Q 3559 1806 3559 1356 
Q 3559 666 3084 287 
Q 2609 -91 1734 -91 
Q 1441 -91 1130 -33 
Q 819 25 488 141 
L 488 750 
Q 750 597 1062 519 
Q 1375 441 1716 441 
Q 2309 441 2620 675 
Q 2931 909 2931 1356 
Q 2931 1769 2642 2001 
Q 2353 2234 1838 2234 
L 1294 2234 
L 1294 2753 
L 1863 2753 
Q 2328 2753 2575 2939 
Q 2822 3125 2822 3475 
Q 2822 3834 2567 4026 
Q 2313 4219 1838 4219 
Q 1578 4219 1281 4162 
Q 984 4106 628 3988 
L 628 4550 
Q 988 4650 1302 4700 
Q 1616 4750 1894 4750 
Q 2613 4750 3031 4423 
Q 3450 4097 3450 3541 
Q 3450 3153 3228 2886 
Q 3006 2619 2597 2516 
z
" transform="scale(0.015625)"/>
      </defs>
      <use xlink:href="#DejaVuSans-74"/>
      <use xlink:href="#DejaVuSans-65" x="39.208984"/>
      <use xlink:href="#DejaVuSans-73" x="100.732422"/>
      <use xlink:href="#DejaVuSans-74" x="152.832031"/>
      <use xlink:href="#DejaVuSans-20" x="192.041016"/>
      <use xlink:href="#DejaVuSans-4c" x="223.828125"/>
      <use xlink:href="#DejaVuSans-42" x="279.541016"/>
      <use xlink:href="#DejaVuSans-46" x="348.144531"/>
      <use xlink:href="#DejaVuSans-47" x="405.664062"/>
      <use xlink:href="#DejaVuSans-53" x="483.154297"/>
      <use xlink:href="#DejaVuSans-20" x="546.630859"/>
      <use xlink:href="#DejaVuSans-5b" x="578.417969"/>
      <use xlink:href="#DejaVuSans-30" x="617.431641"/>
      <use xlink:href="#DejaVuSans-2e" x="681.054688"/>
      <use xlink:href="#DejaVuSans-39" x="712.841797"/>
      <use xlink:href="#DejaVuSans-35" x="776.464844"/>
      <use xlink:href="#DejaVuSans-33" x="840.087891"/>
      <use xlink:href="#DejaVuSans-5d" x="903.710938"/>
     </g>
    </g>
    <g id="line2d_23">
     <path d="M 189.53875 273.850437 
L 199.53875 273.850437 
L 209.53875 273.850437 
" style="fill: none; stroke: #8c564b; stroke-width: 1.5; stroke-linecap: round"/>
    </g>
    <g id="text_19">
     <!-- train LBFGS [1.000] -->
     <g style="fill: #262626" transform="translate(217.53875 277.350437) scale(0.1 -0.1)">
      <use xlink:href="#DejaVuSans-74"/>
      <use xlink:href="#DejaVuSans-72" x="39.208984"/>
      <use xlink:href="#DejaVuSans-61" x="80.322266"/>
      <use xlink:href="#DejaVuSans-69" x="141.601562"/>
      <use xlink:href="#DejaVuSans-6e" x="169.384766"/>
      <use xlink:href="#DejaVuSans-20" x="232.763672"/>
      <use xlink:href="#DejaVuSans-4c" x="264.550781"/>
      <use xlink:href="#DejaVuSans-42" x="320.263672"/>
      <use xlink:href="#DejaVuSans-46" x="388.867188"/>
      <use xlink:href="#DejaVuSans-47" x="446.386719"/>
      <use xlink:href="#DejaVuSans-53" x="523.876953"/>
      <use xlink:href="#DejaVuSans-20" x="587.353516"/>
      <use xlink:href="#DejaVuSans-5b" x="619.140625"/>
      <use xlink:href="#DejaVuSans-31" x="658.154297"/>
      <use xlink:href="#DejaVuSans-2e" x="721.777344"/>
      <use xlink:href="#DejaVuSans-30" x="753.564453"/>
      <use xlink:href="#DejaVuSans-30" x="817.1875"/>
      <use xlink:href="#DejaVuSans-30" x="880.810547"/>
      <use xlink:href="#DejaVuSans-5d" x="944.433594"/>
     </g>
    </g>
   </g>
  </g>
 </g>
 <defs>
  <clipPath id="p7966c48f6b">
   <rect x="30.103125" y="22.318125" width="357.12" height="266.112"/>
  </clipPath>
 </defs>
</svg>
